<svg width="49" height="18" viewBox="0 0 49 18" fill="none" xmlns="http://www.w3.org/2000/svg">
<path d="M5.03625 1.16V7.424H11.0843V1.16H15.2123V17H11.0843V10.616H5.03625V17H0.90825V1.16H5.03625ZM34.1895 17V1.16H41.8935C43.8455 1.16 45.2855 1.528 46.2135 2.264C47.1415 3 47.6055 4.056 47.6055 5.432C47.6055 6.328 47.3415 7.104 46.8135 7.76C46.2855 8.416 45.4775 8.824 44.3895 8.984V9.008C45.6055 9.168 46.5095 9.592 47.1015 10.28C47.7095 10.952 48.0135 11.768 48.0135 12.728C48.0135 14.088 47.5255 15.144 46.5495 15.896C45.5895 16.632 44.1575 17 42.2535 17H34.1895ZM38.1735 7.64H41.1735C42.6455 7.64 43.3815 7.064 43.3815 5.912C43.3815 4.76 42.6455 4.184 41.1735 4.184H38.1735V7.64ZM38.1735 14.096H41.5575C43.0455 14.096 43.7895 13.504 43.7895 12.32C43.7895 11.168 43.0455 10.592 41.5575 10.592H38.1735V14.096Z" fill="#FFFCE8"/>
<path d="M24.9128 0.92C26.3848 0.92 27.6808 1.152 28.8008 1.616C29.9368 2.064 30.9208 2.728 31.7528 3.608L29.7608 6.272C29.0728 5.552 28.3288 5.016 27.5288 4.664C26.7448 4.296 25.8488 4.112 24.8408 4.112C23.9608 4.112 23.3288 4.256 22.9448 4.544C22.5608 4.832 22.3688 5.184 22.3688 5.6C22.3688 5.936 22.5208 6.224 22.8248 6.464C23.1448 6.688 23.6568 6.88 24.3608 7.04L27.0248 7.64C28.6088 8.008 29.7688 8.544 30.5048 9.248C31.2408 9.952 31.6088 10.888 31.6088 12.056C31.6088 13.176 31.3208 14.128 30.7448 14.912C30.1688 15.68 29.3768 16.264 28.3688 16.664C27.3608 17.048 26.2088 17.24 24.9128 17.24C23.3128 17.24 21.8488 16.984 20.5208 16.472C19.1928 15.944 18.1368 15.256 17.3528 14.408L19.3448 11.648C19.9368 12.336 20.7368 12.912 21.7448 13.376C22.7528 13.824 23.7928 14.048 24.8648 14.048C26.5288 14.048 27.3608 13.56 27.3608 12.584C27.3608 12.248 27.2328 11.968 26.9768 11.744C26.7368 11.504 26.2888 11.304 25.6328 11.144L22.7048 10.496C21.8088 10.304 21.0088 10.032 20.3048 9.68C19.6168 9.328 19.0728 8.864 18.6728 8.288C18.2728 7.696 18.0728 6.96 18.0728 6.08C18.0728 5.088 18.3448 4.208 18.8888 3.44C19.4328 2.656 20.2168 2.04 21.2408 1.592C22.2648 1.144 23.4888 0.92 24.9128 0.92Z" fill="#FFBD4A"/>
</svg>
